<svg preserveAspectRatio="none" width="100%" height="100%" overflow="visible" style="display: block;" viewBox="0 0 696.15 532.084" fill="none" xmlns="http://www.w3.org/2000/svg">
<g id="Frame 2608347">
<g id="TAKE PHOTOS INSIDE EACH OTHER&#39;S FRAMES" filter="url(#filter0_d_0_4)">
<mask id="path-1-outside-1_0_4" maskUnits="userSpaceOnUse" x="1.37851" y="-21.7692" width="700.13" height="548.651" fill="black">
<rect fill="white" x="1.37851" y="-21.7692" width="700.13" height="548.651"/>
<path d="M30.5615 137.091L27.4377 123.019L61.4439 115.337L64.5677 129.409L50.9652 132.482L69.7077 216.917L62.9065 218.453L44.164 134.018L30.5615 137.091Z"/>
<path d="M86.5819 109.658L109.378 138.35L124.091 204.631L117.29 206.168L111.042 178.023L90.6386 182.632L96.8861 210.777L90.0848 212.313L75.372 146.032L83.7254 110.303L86.5819 109.658ZM89.0014 126.993L83.4852 150.406L87.5148 168.56L107.919 163.95L103.889 145.797L89.0014 126.993Z"/>
<path d="M115.801 103.057L125.172 145.274L127.076 144.844L138.109 98.0176L143.006 96.9113L145.223 106.903L134.895 150.467L162.654 185.427L164.872 195.418L159.975 196.525L130.2 158.917L128.296 159.347L137.667 201.564L130.866 203.101L108.999 104.594L115.801 103.057Z"/>
<path d="M149.78 95.3809L183.786 87.6987L186.91 101.771L159.705 107.917L165.953 136.062L186.356 131.452L189.48 145.525L169.076 150.134L175.324 178.279L202.529 172.133L205.653 186.206L171.646 193.888L149.78 95.3809Z"/>
<path d="M231.342 76.9556L256.506 71.2708L269.378 87.4269L273.813 107.41L269.001 127.561L250.638 131.709L260.009 173.926L253.208 175.463L231.342 76.9556ZM241.267 89.4916L247.514 117.637L263.021 114.133L265.7 103.036L263.888 94.8738L256.774 85.9886L241.267 89.4916Z"/>
<path d="M278.924 66.2066L288.295 108.424L308.699 103.815L299.328 61.5973L306.129 60.0608L327.995 158.568L321.194 160.104L311.823 117.887L291.419 122.496L300.79 164.714L293.989 166.25L272.123 67.743L278.924 66.2066Z"/>
<path d="M321.609 56.5637L338.068 52.8455L350.939 69.0016L364.746 131.202L359.934 151.353L343.475 155.071L330.74 138.884L316.933 76.6838L321.609 56.5637ZM325.046 81.0578L336.229 131.437L343.208 140.353L353.954 137.926L356.633 126.828L345.45 76.4485L338.335 67.5633L327.589 69.9909L325.046 81.0578Z"/>
<path d="M356.808 63.3902L353.684 49.3177L387.69 41.6355L390.814 55.708L377.212 58.7809L395.954 143.216L389.153 144.752L370.411 60.3173L356.808 63.3902Z"/>
<path d="M403.171 38.1385L419.63 34.4203L432.501 50.5764L446.308 112.777L441.496 132.927L425.037 136.646L412.302 120.459L398.495 58.2586L403.171 38.1385ZM406.608 62.6326L417.791 113.012L424.77 121.928L435.516 119.5L438.195 108.403L427.012 58.0232L419.897 49.138L409.151 51.5656L406.608 62.6326Z"/>
<path d="M443.952 28.9258L460.411 25.2077L473.282 41.3637L475.5 51.3552L470.603 52.4614L460.678 39.9254L449.932 42.353L447.389 53.4199L449.201 61.5819L456.179 70.4979L469.782 67.425L482.653 83.5811L487.089 103.564L482.277 123.715L465.818 127.433L453.083 111.246L450.865 101.255L455.626 100.179L465.551 112.715L476.296 110.288L478.976 99.19L477.164 91.028L470.049 82.1427L456.447 85.2156L443.711 69.0288L439.276 49.0459L443.952 28.9258Z"/>
<path d="M68.4991 275.823L65.3753 261.751L85.779 257.142L88.9028 271.214L82.1015 272.751L97.7203 343.113L104.522 341.576L107.645 355.649L87.2416 360.258L84.1179 346.186L90.9191 344.649L75.3003 274.287L68.4991 275.823Z"/>
<path d="M106.156 252.538L112.404 280.683L117.165 279.608L137.014 304.68L139.055 304.219L126.56 247.929L133.361 246.393L155.227 344.9L148.426 346.436L142.179 318.291L137.282 319.398L117.432 294.326L115.527 294.756L128.022 351.046L121.221 352.582L99.3549 254.075L106.156 252.538Z"/>
<path d="M148.841 242.896L165.3 239.177L178.172 255.333L180.389 265.325L175.493 266.431L165.568 253.895L154.822 256.323L152.279 267.39L154.09 275.552L161.069 284.468L174.672 281.395L187.543 297.551L191.979 317.534L187.167 337.685L170.708 341.403L157.972 325.216L155.755 315.224L160.515 314.149L170.44 326.685L181.186 324.257L183.865 313.16L182.054 304.998L174.939 296.112L161.336 299.185L148.601 282.999L144.165 263.016L148.841 242.896Z"/>
<path d="M190.842 248.186L187.718 234.113L208.121 229.504L211.245 243.576L204.444 245.113L220.063 315.475L226.864 313.939L229.988 328.011L209.584 332.62L206.46 318.548L213.262 317.011L197.643 246.649L190.842 248.186Z"/>
<path d="M221.697 226.437L246.862 220.752L259.733 236.908L273.54 299.108L268.728 319.259L243.564 324.944L221.697 226.437ZM231.622 238.973L247.241 309.335L262.748 305.832L265.427 294.734L254.244 244.355L247.129 235.47L231.622 238.973Z"/>
<path d="M262.478 217.224L296.484 209.542L299.608 223.615L272.403 229.76L278.651 257.905L299.054 253.296L302.178 267.368L281.774 271.978L288.022 300.123L315.227 293.977L318.351 308.049L284.344 315.731L262.478 217.224Z"/>
<path d="M344.04 198.799L378.046 191.117L381.17 205.189L353.965 211.335L360.212 239.48L380.616 234.871L383.74 248.943L363.336 253.552L369.584 281.697L396.789 275.552L399.912 289.624L365.906 297.306L344.04 198.799Z"/>
<path d="M403.184 185.438L425.98 214.13L440.693 280.411L433.892 281.948L427.644 253.803L407.241 258.412L413.488 286.557L406.687 288.094L391.974 221.812L400.327 186.083L403.184 185.438ZM405.603 202.773L400.087 226.186L404.117 244.34L424.521 239.73L420.491 221.577L405.603 202.773Z"/>
<path d="M434.307 178.407L450.766 174.689L463.637 190.845L465.855 200.837L460.958 201.943L451.033 189.407L440.287 191.834L437.744 202.901L448.927 253.281L455.906 262.197L466.652 259.769L470.33 244.16L475.226 243.054L477.444 253.045L472.632 273.196L456.173 276.914L443.438 260.727L429.631 198.527L434.307 178.407Z"/>
<path d="M473.184 169.625L482.555 211.842L502.958 207.233L493.587 165.015L500.388 163.479L522.255 261.986L515.453 263.523L506.082 221.305L485.679 225.915L495.05 268.132L488.249 269.668L466.382 171.161L473.184 169.625Z"/>
<path d="M98.416 401.59L114.875 397.871L127.746 414.027L141.553 476.228L136.741 496.378L120.282 500.097L107.547 483.91L93.7401 421.71L98.416 401.59ZM101.853 426.084L113.036 476.463L120.015 485.379L130.761 482.951L133.44 471.854L122.257 421.474L115.142 412.589L104.396 415.017L101.853 426.084Z"/>
<path d="M133.615 408.416L130.491 394.344L164.497 386.661L167.621 400.734L154.019 403.807L172.761 488.241L165.96 489.778L147.217 405.343L133.615 408.416Z"/>
<path d="M178.073 383.594L187.445 425.812L207.848 421.202L198.477 378.985L205.278 377.449L227.145 475.956L220.343 477.492L210.972 435.275L190.568 439.884L199.94 482.102L193.138 483.638L171.272 385.131L178.073 383.594Z"/>
<path d="M212.053 375.918L246.059 368.236L249.183 382.309L221.978 388.454L228.225 416.599L248.629 411.99L251.753 426.062L231.349 430.672L237.597 458.817L264.802 452.671L267.925 466.743L233.919 474.425L212.053 375.918Z"/>
<path d="M252.834 366.706L277.998 361.021L290.87 377.177L295.305 397.16L290.493 417.311L285.732 418.386L286.638 422.467L306.488 447.539L308.706 457.531L303.809 458.637L281.149 429.914L278.931 419.923L272.13 421.459L281.501 463.676L274.7 465.213L252.834 366.706ZM262.759 379.242L269.006 407.387L284.513 403.883L287.192 392.786L285.38 384.624L278.266 375.739L262.759 379.242Z"/>
<path d="M314.018 352.884L323.39 395.101L316.588 396.637L307.217 354.42L314.018 352.884Z"/>
<path d="M343.101 346.314L359.56 342.596L372.431 358.752L374.649 368.743L369.752 369.849L359.827 357.313L349.081 359.741L346.538 370.808L348.35 378.97L355.329 387.886L368.931 384.813L381.802 400.969L386.238 420.952L381.426 441.103L364.967 444.821L352.232 428.634L350.014 418.643L354.775 417.567L364.7 430.103L375.446 427.676L378.125 416.578L376.313 408.416L369.198 399.531L355.596 402.604L342.861 386.417L338.425 366.434L343.101 346.314Z"/>
<path d="M415.957 329.855L449.963 322.173L453.087 336.245L425.882 342.391L432.129 370.536L452.533 365.927L455.657 379.999L435.253 384.608L444.625 426.826L437.823 428.362L415.957 329.855Z"/>
<path d="M456.738 320.642L481.902 314.958L494.774 331.114L499.209 351.097L494.397 371.247L489.637 372.323L490.542 376.404L510.392 401.476L512.61 411.467L507.713 412.574L485.053 383.851L482.835 373.859L476.034 375.396L485.405 417.613L478.604 419.15L456.738 320.642ZM466.663 333.178L472.91 361.323L488.417 357.82L491.096 346.723L489.284 338.561L482.17 329.675L466.663 333.178Z"/>
<path d="M515.882 307.281L538.678 335.974L553.391 402.255L546.59 403.791L540.342 375.646L519.939 380.256L526.186 408.401L519.385 409.937L504.672 343.656L513.025 307.927L515.882 307.281ZM518.301 324.616L512.785 348.03L516.815 366.183L537.219 361.574L533.189 343.42L518.301 324.616Z"/>
<path d="M545.101 300.681L548.224 314.753L552.985 313.678L560.894 323.566L563.731 311.25L568.628 310.144L565.504 296.071L572.306 294.535L594.172 393.042L587.371 394.579L571.752 324.216L569.712 324.677L567.169 335.744L571.198 353.898L564.397 355.434L560.367 337.281L553.253 328.395L551.348 328.826L566.967 399.188L560.166 400.724L538.299 302.217L545.101 300.681Z"/>
<path d="M579.08 293.005L613.086 285.322L616.21 299.395L589.005 305.541L595.253 333.686L615.656 329.076L618.78 343.149L598.377 347.758L604.624 375.903L631.829 369.757L634.953 383.83L600.947 391.512L579.08 293.005Z"/>
<path d="M628.567 281.825L645.026 278.107L657.897 294.263L660.115 304.255L655.218 305.361L645.293 292.825L634.547 295.252L632.004 306.319L633.816 314.481L640.794 323.397L654.397 320.324L667.268 336.481L671.704 356.463L666.892 376.614L650.433 380.332L637.698 364.146L635.48 354.154L640.241 353.079L650.166 365.615L660.912 363.187L663.591 352.089L661.779 343.927L654.664 335.042L641.062 338.115L628.326 321.928L623.891 301.945L628.567 281.825Z"/>
</mask>
<path d="M30.5615 137.091L27.4377 123.019L61.4439 115.337L64.5677 129.409L50.9652 132.482L69.7077 216.917L62.9065 218.453L44.164 134.018L30.5615 137.091Z" fill="var(--fill-0, #1A1A2E)"/>
<path d="M86.5819 109.658L109.378 138.35L124.091 204.631L117.29 206.168L111.042 178.023L90.6386 182.632L96.8861 210.777L90.0848 212.313L75.372 146.032L83.7254 110.303L86.5819 109.658ZM89.0014 126.993L83.4852 150.406L87.5148 168.56L107.919 163.95L103.889 145.797L89.0014 126.993Z" fill="var(--fill-0, #1A1A2E)"/>
<path d="M115.801 103.057L125.172 145.274L127.076 144.844L138.109 98.0176L143.006 96.9113L145.223 106.903L134.895 150.467L162.654 185.427L164.872 195.418L159.975 196.525L130.2 158.917L128.296 159.347L137.667 201.564L130.866 203.101L108.999 104.594L115.801 103.057Z" fill="var(--fill-0, #1A1A2E)"/>
<path d="M149.78 95.3809L183.786 87.6987L186.91 101.771L159.705 107.917L165.953 136.062L186.356 131.452L189.48 145.525L169.076 150.134L175.324 178.279L202.529 172.133L205.653 186.206L171.646 193.888L149.78 95.3809Z" fill="var(--fill-0, #1A1A2E)"/>
<path d="M231.342 76.9556L256.506 71.2708L269.378 87.4269L273.813 107.41L269.001 127.561L250.638 131.709L260.009 173.926L253.208 175.463L231.342 76.9556ZM241.267 89.4916L247.514 117.637L263.021 114.133L265.7 103.036L263.888 94.8738L256.774 85.9886L241.267 89.4916Z" fill="var(--fill-0, #1A1A2E)"/>
<path d="M278.924 66.2066L288.295 108.424L308.699 103.815L299.328 61.5973L306.129 60.0608L327.995 158.568L321.194 160.104L311.823 117.887L291.419 122.496L300.79 164.714L293.989 166.25L272.123 67.743L278.924 66.2066Z" fill="var(--fill-0, #1A1A2E)"/>
<path d="M321.609 56.5637L338.068 52.8455L350.939 69.0016L364.746 131.202L359.934 151.353L343.475 155.071L330.74 138.884L316.933 76.6838L321.609 56.5637ZM325.046 81.0578L336.229 131.437L343.208 140.353L353.954 137.926L356.633 126.828L345.45 76.4485L338.335 67.5633L327.589 69.9909L325.046 81.0578Z" fill="var(--fill-0, #1A1A2E)"/>
<path d="M356.808 63.3902L353.684 49.3177L387.69 41.6355L390.814 55.708L377.212 58.7809L395.954 143.216L389.153 144.752L370.411 60.3173L356.808 63.3902Z" fill="var(--fill-0, #1A1A2E)"/>
<path d="M403.171 38.1385L419.63 34.4203L432.501 50.5764L446.308 112.777L441.496 132.927L425.037 136.646L412.302 120.459L398.495 58.2586L403.171 38.1385ZM406.608 62.6326L417.791 113.012L424.77 121.928L435.516 119.5L438.195 108.403L427.012 58.0232L419.897 49.138L409.151 51.5656L406.608 62.6326Z" fill="var(--fill-0, #1A1A2E)"/>
<path d="M443.952 28.9258L460.411 25.2077L473.282 41.3637L475.5 51.3552L470.603 52.4614L460.678 39.9254L449.932 42.353L447.389 53.4199L449.201 61.5819L456.179 70.4979L469.782 67.425L482.653 83.5811L487.089 103.564L482.277 123.715L465.818 127.433L453.083 111.246L450.865 101.255L455.626 100.179L465.551 112.715L476.296 110.288L478.976 99.19L477.164 91.028L470.049 82.1427L456.447 85.2156L443.711 69.0288L439.276 49.0459L443.952 28.9258Z" fill="var(--fill-0, #1A1A2E)"/>
<path d="M68.4991 275.823L65.3753 261.751L85.779 257.142L88.9028 271.214L82.1015 272.751L97.7203 343.113L104.522 341.576L107.645 355.649L87.2416 360.258L84.1179 346.186L90.9191 344.649L75.3003 274.287L68.4991 275.823Z" fill="var(--fill-0, #1A1A2E)"/>
<path d="M106.156 252.538L112.404 280.683L117.165 279.608L137.014 304.68L139.055 304.219L126.56 247.929L133.361 246.393L155.227 344.9L148.426 346.436L142.179 318.291L137.282 319.398L117.432 294.326L115.527 294.756L128.022 351.046L121.221 352.582L99.3549 254.075L106.156 252.538Z" fill="var(--fill-0, #1A1A2E)"/>
<path d="M148.841 242.896L165.3 239.177L178.172 255.333L180.389 265.325L175.493 266.431L165.568 253.895L154.822 256.323L152.279 267.39L154.09 275.552L161.069 284.468L174.672 281.395L187.543 297.551L191.979 317.534L187.167 337.685L170.708 341.403L157.972 325.216L155.755 315.224L160.515 314.149L170.44 326.685L181.186 324.257L183.865 313.16L182.054 304.998L174.939 296.112L161.336 299.185L148.601 282.999L144.165 263.016L148.841 242.896Z" fill="var(--fill-0, #1A1A2E)"/>
<path d="M190.842 248.186L187.718 234.113L208.121 229.504L211.245 243.576L204.444 245.113L220.063 315.475L226.864 313.939L229.988 328.011L209.584 332.62L206.46 318.548L213.262 317.011L197.643 246.649L190.842 248.186Z" fill="var(--fill-0, #1A1A2E)"/>
<path d="M221.697 226.437L246.862 220.752L259.733 236.908L273.54 299.108L268.728 319.259L243.564 324.944L221.697 226.437ZM231.622 238.973L247.241 309.335L262.748 305.832L265.427 294.734L254.244 244.355L247.129 235.47L231.622 238.973Z" fill="var(--fill-0, #1A1A2E)"/>
<path d="M262.478 217.224L296.484 209.542L299.608 223.615L272.403 229.76L278.651 257.905L299.054 253.296L302.178 267.368L281.774 271.978L288.022 300.123L315.227 293.977L318.351 308.049L284.344 315.731L262.478 217.224Z" fill="var(--fill-0, #1A1A2E)"/>
<path d="M344.04 198.799L378.046 191.117L381.17 205.189L353.965 211.335L360.212 239.48L380.616 234.871L383.74 248.943L363.336 253.552L369.584 281.697L396.789 275.552L399.912 289.624L365.906 297.306L344.04 198.799Z" fill="var(--fill-0, #1A1A2E)"/>
<path d="M403.184 185.438L425.98 214.13L440.693 280.411L433.892 281.948L427.644 253.803L407.241 258.412L413.488 286.557L406.687 288.094L391.974 221.812L400.327 186.083L403.184 185.438ZM405.603 202.773L400.087 226.186L404.117 244.34L424.521 239.73L420.491 221.577L405.603 202.773Z" fill="var(--fill-0, #1A1A2E)"/>
<path d="M434.307 178.407L450.766 174.689L463.637 190.845L465.855 200.837L460.958 201.943L451.033 189.407L440.287 191.834L437.744 202.901L448.927 253.281L455.906 262.197L466.652 259.769L470.33 244.16L475.226 243.054L477.444 253.045L472.632 273.196L456.173 276.914L443.438 260.727L429.631 198.527L434.307 178.407Z" fill="var(--fill-0, #1A1A2E)"/>
<path d="M473.184 169.625L482.555 211.842L502.958 207.233L493.587 165.015L500.388 163.479L522.255 261.986L515.453 263.523L506.082 221.305L485.679 225.915L495.05 268.132L488.249 269.668L466.382 171.161L473.184 169.625Z" fill="var(--fill-0, #1A1A2E)"/>
<path d="M98.416 401.59L114.875 397.871L127.746 414.027L141.553 476.228L136.741 496.378L120.282 500.097L107.547 483.91L93.7401 421.71L98.416 401.59ZM101.853 426.084L113.036 476.463L120.015 485.379L130.761 482.951L133.44 471.854L122.257 421.474L115.142 412.589L104.396 415.017L101.853 426.084Z" fill="var(--fill-0, #1A1A2E)"/>
<path d="M133.615 408.416L130.491 394.344L164.497 386.661L167.621 400.734L154.019 403.807L172.761 488.241L165.96 489.778L147.217 405.343L133.615 408.416Z" fill="var(--fill-0, #1A1A2E)"/>
<path d="M178.073 383.594L187.445 425.812L207.848 421.202L198.477 378.985L205.278 377.449L227.145 475.956L220.343 477.492L210.972 435.275L190.568 439.884L199.94 482.102L193.138 483.638L171.272 385.131L178.073 383.594Z" fill="var(--fill-0, #1A1A2E)"/>
<path d="M212.053 375.918L246.059 368.236L249.183 382.309L221.978 388.454L228.225 416.599L248.629 411.99L251.753 426.062L231.349 430.672L237.597 458.817L264.802 452.671L267.925 466.743L233.919 474.425L212.053 375.918Z" fill="var(--fill-0, #1A1A2E)"/>
<path d="M252.834 366.706L277.998 361.021L290.87 377.177L295.305 397.16L290.493 417.311L285.732 418.386L286.638 422.467L306.488 447.539L308.706 457.531L303.809 458.637L281.149 429.914L278.931 419.923L272.13 421.459L281.501 463.676L274.7 465.213L252.834 366.706ZM262.759 379.242L269.006 407.387L284.513 403.883L287.192 392.786L285.38 384.624L278.266 375.739L262.759 379.242Z" fill="var(--fill-0, #1A1A2E)"/>
<path d="M314.018 352.884L323.39 395.101L316.588 396.637L307.217 354.42L314.018 352.884Z" fill="var(--fill-0, #1A1A2E)"/>
<path d="M343.101 346.314L359.56 342.596L372.431 358.752L374.649 368.743L369.752 369.849L359.827 357.313L349.081 359.741L346.538 370.808L348.35 378.97L355.329 387.886L368.931 384.813L381.802 400.969L386.238 420.952L381.426 441.103L364.967 444.821L352.232 428.634L350.014 418.643L354.775 417.567L364.7 430.103L375.446 427.676L378.125 416.578L376.313 408.416L369.198 399.531L355.596 402.604L342.861 386.417L338.425 366.434L343.101 346.314Z" fill="var(--fill-0, #1A1A2E)"/>
<path d="M415.957 329.855L449.963 322.173L453.087 336.245L425.882 342.391L432.129 370.536L452.533 365.927L455.657 379.999L435.253 384.608L444.625 426.826L437.823 428.362L415.957 329.855Z" fill="var(--fill-0, #1A1A2E)"/>
<path d="M456.738 320.642L481.902 314.958L494.774 331.114L499.209 351.097L494.397 371.247L489.637 372.323L490.542 376.404L510.392 401.476L512.61 411.467L507.713 412.574L485.053 383.851L482.835 373.859L476.034 375.396L485.405 417.613L478.604 419.15L456.738 320.642ZM466.663 333.178L472.91 361.323L488.417 357.82L491.096 346.723L489.284 338.561L482.17 329.675L466.663 333.178Z" fill="var(--fill-0, #1A1A2E)"/>
<path d="M515.882 307.281L538.678 335.974L553.391 402.255L546.59 403.791L540.342 375.646L519.939 380.256L526.186 408.401L519.385 409.937L504.672 343.656L513.025 307.927L515.882 307.281ZM518.301 324.616L512.785 348.03L516.815 366.183L537.219 361.574L533.189 343.42L518.301 324.616Z" fill="var(--fill-0, #1A1A2E)"/>
<path d="M545.101 300.681L548.224 314.753L552.985 313.678L560.894 323.566L563.731 311.25L568.628 310.144L565.504 296.071L572.306 294.535L594.172 393.042L587.371 394.579L571.752 324.216L569.712 324.677L567.169 335.744L571.198 353.898L564.397 355.434L560.367 337.281L553.253 328.395L551.348 328.826L566.967 399.188L560.166 400.724L538.299 302.217L545.101 300.681Z" fill="var(--fill-0, #1A1A2E)"/>
<path d="M579.08 293.005L613.086 285.322L616.21 299.395L589.005 305.541L595.253 333.686L615.656 329.076L618.78 343.149L598.377 347.758L604.624 375.903L631.829 369.757L634.953 383.83L600.947 391.512L579.08 293.005Z" fill="var(--fill-0, #1A1A2E)"/>
<path d="M628.567 281.825L645.026 278.107L657.897 294.263L660.115 304.255L655.218 305.361L645.293 292.825L634.547 295.252L632.004 306.319L633.816 314.481L640.794 323.397L654.397 320.324L667.268 336.481L671.704 356.463L666.892 376.614L650.433 380.332L637.698 364.146L635.48 354.154L640.241 353.079L650.166 365.615L660.912 363.187L663.591 352.089L661.779 343.927L654.664 335.042L641.062 338.115L628.326 321.928L623.891 301.945L628.567 281.825Z" fill="var(--fill-0, #1A1A2E)"/>
<path d="M30.5615 137.091L27.4377 123.019L61.4439 115.337L64.5677 129.409L50.9652 132.482L69.7077 216.917L62.9065 218.453L44.164 134.018L30.5615 137.091Z" stroke="var(--stroke-0, #F1E84A)" stroke-width="36.0527" mask="url(#path-1-outside-1_0_4)"/>
<path d="M86.5819 109.658L109.378 138.35L124.091 204.631L117.29 206.168L111.042 178.023L90.6386 182.632L96.8861 210.777L90.0848 212.313L75.372 146.032L83.7254 110.303L86.5819 109.658ZM89.0014 126.993L83.4852 150.406L87.5148 168.56L107.919 163.95L103.889 145.797L89.0014 126.993Z" stroke="var(--stroke-0, #F1E84A)" stroke-width="36.0527" mask="url(#path-1-outside-1_0_4)"/>
<path d="M115.801 103.057L125.172 145.274L127.076 144.844L138.109 98.0176L143.006 96.9113L145.223 106.903L134.895 150.467L162.654 185.427L164.872 195.418L159.975 196.525L130.2 158.917L128.296 159.347L137.667 201.564L130.866 203.101L108.999 104.594L115.801 103.057Z" stroke="var(--stroke-0, #F1E84A)" stroke-width="36.0527" mask="url(#path-1-outside-1_0_4)"/>
<path d="M149.78 95.3809L183.786 87.6987L186.91 101.771L159.705 107.917L165.953 136.062L186.356 131.452L189.48 145.525L169.076 150.134L175.324 178.279L202.529 172.133L205.653 186.206L171.646 193.888L149.78 95.3809Z" stroke="var(--stroke-0, #F1E84A)" stroke-width="36.0527" mask="url(#path-1-outside-1_0_4)"/>
<path d="M231.342 76.9556L256.506 71.2708L269.378 87.4269L273.813 107.41L269.001 127.561L250.638 131.709L260.009 173.926L253.208 175.463L231.342 76.9556ZM241.267 89.4916L247.514 117.637L263.021 114.133L265.7 103.036L263.888 94.8738L256.774 85.9886L241.267 89.4916Z" stroke="var(--stroke-0, #F1E84A)" stroke-width="36.0527" mask="url(#path-1-outside-1_0_4)"/>
<path d="M278.924 66.2066L288.295 108.424L308.699 103.815L299.328 61.5973L306.129 60.0608L327.995 158.568L321.194 160.104L311.823 117.887L291.419 122.496L300.79 164.714L293.989 166.25L272.123 67.743L278.924 66.2066Z" stroke="var(--stroke-0, #F1E84A)" stroke-width="36.0527" mask="url(#path-1-outside-1_0_4)"/>
<path d="M321.609 56.5637L338.068 52.8455L350.939 69.0016L364.746 131.202L359.934 151.353L343.475 155.071L330.74 138.884L316.933 76.6838L321.609 56.5637ZM325.046 81.0578L336.229 131.437L343.208 140.353L353.954 137.926L356.633 126.828L345.45 76.4485L338.335 67.5633L327.589 69.9909L325.046 81.0578Z" stroke="var(--stroke-0, #F1E84A)" stroke-width="36.0527" mask="url(#path-1-outside-1_0_4)"/>
<path d="M356.808 63.3902L353.684 49.3177L387.69 41.6355L390.814 55.708L377.212 58.7809L395.954 143.216L389.153 144.752L370.411 60.3173L356.808 63.3902Z" stroke="var(--stroke-0, #F1E84A)" stroke-width="36.0527" mask="url(#path-1-outside-1_0_4)"/>
<path d="M403.171 38.1385L419.63 34.4203L432.501 50.5764L446.308 112.777L441.496 132.927L425.037 136.646L412.302 120.459L398.495 58.2586L403.171 38.1385ZM406.608 62.6326L417.791 113.012L424.77 121.928L435.516 119.5L438.195 108.403L427.012 58.0232L419.897 49.138L409.151 51.5656L406.608 62.6326Z" stroke="var(--stroke-0, #F1E84A)" stroke-width="36.0527" mask="url(#path-1-outside-1_0_4)"/>
<path d="M443.952 28.9258L460.411 25.2077L473.282 41.3637L475.5 51.3552L470.603 52.4614L460.678 39.9254L449.932 42.353L447.389 53.4199L449.201 61.5819L456.179 70.4979L469.782 67.425L482.653 83.5811L487.089 103.564L482.277 123.715L465.818 127.433L453.083 111.246L450.865 101.255L455.626 100.179L465.551 112.715L476.296 110.288L478.976 99.19L477.164 91.028L470.049 82.1427L456.447 85.2156L443.711 69.0288L439.276 49.0459L443.952 28.9258Z" stroke="var(--stroke-0, #F1E84A)" stroke-width="36.0527" mask="url(#path-1-outside-1_0_4)"/>
<path d="M68.4991 275.823L65.3753 261.751L85.779 257.142L88.9028 271.214L82.1015 272.751L97.7203 343.113L104.522 341.576L107.645 355.649L87.2416 360.258L84.1179 346.186L90.9191 344.649L75.3003 274.287L68.4991 275.823Z" stroke="var(--stroke-0, #F1E84A)" stroke-width="36.0527" mask="url(#path-1-outside-1_0_4)"/>
<path d="M106.156 252.538L112.404 280.683L117.165 279.608L137.014 304.68L139.055 304.219L126.56 247.929L133.361 246.393L155.227 344.9L148.426 346.436L142.179 318.291L137.282 319.398L117.432 294.326L115.527 294.756L128.022 351.046L121.221 352.582L99.3549 254.075L106.156 252.538Z" stroke="var(--stroke-0, #F1E84A)" stroke-width="36.0527" mask="url(#path-1-outside-1_0_4)"/>
<path d="M148.841 242.896L165.3 239.177L178.172 255.333L180.389 265.325L175.493 266.431L165.568 253.895L154.822 256.323L152.279 267.39L154.09 275.552L161.069 284.468L174.672 281.395L187.543 297.551L191.979 317.534L187.167 337.685L170.708 341.403L157.972 325.216L155.755 315.224L160.515 314.149L170.44 326.685L181.186 324.257L183.865 313.16L182.054 304.998L174.939 296.112L161.336 299.185L148.601 282.999L144.165 263.016L148.841 242.896Z" stroke="var(--stroke-0, #F1E84A)" stroke-width="36.0527" mask="url(#path-1-outside-1_0_4)"/>
<path d="M190.842 248.186L187.718 234.113L208.121 229.504L211.245 243.576L204.444 245.113L220.063 315.475L226.864 313.939L229.988 328.011L209.584 332.62L206.46 318.548L213.262 317.011L197.643 246.649L190.842 248.186Z" stroke="var(--stroke-0, #F1E84A)" stroke-width="36.0527" mask="url(#path-1-outside-1_0_4)"/>
<path d="M221.697 226.437L246.862 220.752L259.733 236.908L273.54 299.108L268.728 319.259L243.564 324.944L221.697 226.437ZM231.622 238.973L247.241 309.335L262.748 305.832L265.427 294.734L254.244 244.355L247.129 235.47L231.622 238.973Z" stroke="var(--stroke-0, #F1E84A)" stroke-width="36.0527" mask="url(#path-1-outside-1_0_4)"/>
<path d="M262.478 217.224L296.484 209.542L299.608 223.615L272.403 229.76L278.651 257.905L299.054 253.296L302.178 267.368L281.774 271.978L288.022 300.123L315.227 293.977L318.351 308.049L284.344 315.731L262.478 217.224Z" stroke="var(--stroke-0, #F1E84A)" stroke-width="36.0527" mask="url(#path-1-outside-1_0_4)"/>
<path d="M344.04 198.799L378.046 191.117L381.17 205.189L353.965 211.335L360.212 239.48L380.616 234.871L383.74 248.943L363.336 253.552L369.584 281.697L396.789 275.552L399.912 289.624L365.906 297.306L344.04 198.799Z" stroke="var(--stroke-0, #F1E84A)" stroke-width="36.0527" mask="url(#path-1-outside-1_0_4)"/>
<path d="M403.184 185.438L425.98 214.13L440.693 280.411L433.892 281.948L427.644 253.803L407.241 258.412L413.488 286.557L406.687 288.094L391.974 221.812L400.327 186.083L403.184 185.438ZM405.603 202.773L400.087 226.186L404.117 244.34L424.521 239.73L420.491 221.577L405.603 202.773Z" stroke="var(--stroke-0, #F1E84A)" stroke-width="36.0527" mask="url(#path-1-outside-1_0_4)"/>
<path d="M434.307 178.407L450.766 174.689L463.637 190.845L465.855 200.837L460.958 201.943L451.033 189.407L440.287 191.834L437.744 202.901L448.927 253.281L455.906 262.197L466.652 259.769L470.33 244.16L475.226 243.054L477.444 253.045L472.632 273.196L456.173 276.914L443.438 260.727L429.631 198.527L434.307 178.407Z" stroke="var(--stroke-0, #F1E84A)" stroke-width="36.0527" mask="url(#path-1-outside-1_0_4)"/>
<path d="M473.184 169.625L482.555 211.842L502.958 207.233L493.587 165.015L500.388 163.479L522.255 261.986L515.453 263.523L506.082 221.305L485.679 225.915L495.05 268.132L488.249 269.668L466.382 171.161L473.184 169.625Z" stroke="var(--stroke-0, #F1E84A)" stroke-width="36.0527" mask="url(#path-1-outside-1_0_4)"/>
<path d="M98.416 401.59L114.875 397.871L127.746 414.027L141.553 476.228L136.741 496.378L120.282 500.097L107.547 483.91L93.7401 421.71L98.416 401.59ZM101.853 426.084L113.036 476.463L120.015 485.379L130.761 482.951L133.44 471.854L122.257 421.474L115.142 412.589L104.396 415.017L101.853 426.084Z" stroke="var(--stroke-0, #F1E84A)" stroke-width="36.0527" mask="url(#path-1-outside-1_0_4)"/>
<path d="M133.615 408.416L130.491 394.344L164.497 386.661L167.621 400.734L154.019 403.807L172.761 488.241L165.96 489.778L147.217 405.343L133.615 408.416Z" stroke="var(--stroke-0, #F1E84A)" stroke-width="36.0527" mask="url(#path-1-outside-1_0_4)"/>
<path d="M178.073 383.594L187.445 425.812L207.848 421.202L198.477 378.985L205.278 377.449L227.145 475.956L220.343 477.492L210.972 435.275L190.568 439.884L199.94 482.102L193.138 483.638L171.272 385.131L178.073 383.594Z" stroke="var(--stroke-0, #F1E84A)" stroke-width="36.0527" mask="url(#path-1-outside-1_0_4)"/>
<path d="M212.053 375.918L246.059 368.236L249.183 382.309L221.978 388.454L228.225 416.599L248.629 411.99L251.753 426.062L231.349 430.672L237.597 458.817L264.802 452.671L267.925 466.743L233.919 474.425L212.053 375.918Z" stroke="var(--stroke-0, #F1E84A)" stroke-width="36.0527" mask="url(#path-1-outside-1_0_4)"/>
<path d="M252.834 366.706L277.998 361.021L290.87 377.177L295.305 397.16L290.493 417.311L285.732 418.386L286.638 422.467L306.488 447.539L308.706 457.531L303.809 458.637L281.149 429.914L278.931 419.923L272.13 421.459L281.501 463.676L274.7 465.213L252.834 366.706ZM262.759 379.242L269.006 407.387L284.513 403.883L287.192 392.786L285.38 384.624L278.266 375.739L262.759 379.242Z" stroke="var(--stroke-0, #F1E84A)" stroke-width="36.0527" mask="url(#path-1-outside-1_0_4)"/>
<path d="M314.018 352.884L323.39 395.101L316.588 396.637L307.217 354.42L314.018 352.884Z" stroke="var(--stroke-0, #F1E84A)" stroke-width="36.0527" mask="url(#path-1-outside-1_0_4)"/>
<path d="M343.101 346.314L359.56 342.596L372.431 358.752L374.649 368.743L369.752 369.849L359.827 357.313L349.081 359.741L346.538 370.808L348.35 378.97L355.329 387.886L368.931 384.813L381.802 400.969L386.238 420.952L381.426 441.103L364.967 444.821L352.232 428.634L350.014 418.643L354.775 417.567L364.7 430.103L375.446 427.676L378.125 416.578L376.313 408.416L369.198 399.531L355.596 402.604L342.861 386.417L338.425 366.434L343.101 346.314Z" stroke="var(--stroke-0, #F1E84A)" stroke-width="36.0527" mask="url(#path-1-outside-1_0_4)"/>
<path d="M415.957 329.855L449.963 322.173L453.087 336.245L425.882 342.391L432.129 370.536L452.533 365.927L455.657 379.999L435.253 384.608L444.625 426.826L437.823 428.362L415.957 329.855Z" stroke="var(--stroke-0, #F1E84A)" stroke-width="36.0527" mask="url(#path-1-outside-1_0_4)"/>
<path d="M456.738 320.642L481.902 314.958L494.774 331.114L499.209 351.097L494.397 371.247L489.637 372.323L490.542 376.404L510.392 401.476L512.61 411.467L507.713 412.574L485.053 383.851L482.835 373.859L476.034 375.396L485.405 417.613L478.604 419.15L456.738 320.642ZM466.663 333.178L472.91 361.323L488.417 357.82L491.096 346.723L489.284 338.561L482.17 329.675L466.663 333.178Z" stroke="var(--stroke-0, #F1E84A)" stroke-width="36.0527" mask="url(#path-1-outside-1_0_4)"/>
<path d="M515.882 307.281L538.678 335.974L553.391 402.255L546.59 403.791L540.342 375.646L519.939 380.256L526.186 408.401L519.385 409.937L504.672 343.656L513.025 307.927L515.882 307.281ZM518.301 324.616L512.785 348.03L516.815 366.183L537.219 361.574L533.189 343.42L518.301 324.616Z" stroke="var(--stroke-0, #F1E84A)" stroke-width="36.0527" mask="url(#path-1-outside-1_0_4)"/>
<path d="M545.101 300.681L548.224 314.753L552.985 313.678L560.894 323.566L563.731 311.25L568.628 310.144L565.504 296.071L572.306 294.535L594.172 393.042L587.371 394.579L571.752 324.216L569.712 324.677L567.169 335.744L571.198 353.898L564.397 355.434L560.367 337.281L553.253 328.395L551.348 328.826L566.967 399.188L560.166 400.724L538.299 302.217L545.101 300.681Z" stroke="var(--stroke-0, #F1E84A)" stroke-width="36.0527" mask="url(#path-1-outside-1_0_4)"/>
<path d="M579.08 293.005L613.086 285.322L616.21 299.395L589.005 305.541L595.253 333.686L615.656 329.076L618.78 343.149L598.377 347.758L604.624 375.903L631.829 369.757L634.953 383.83L600.947 391.512L579.08 293.005Z" stroke="var(--stroke-0, #F1E84A)" stroke-width="36.0527" mask="url(#path-1-outside-1_0_4)"/>
<path d="M628.567 281.825L645.026 278.107L657.897 294.263L660.115 304.255L655.218 305.361L645.293 292.825L634.547 295.252L632.004 306.319L633.816 314.481L640.794 323.397L654.397 320.324L667.268 336.481L671.704 356.463L666.892 376.614L650.433 380.332L637.698 364.146L635.48 354.154L640.241 353.079L650.166 365.615L660.912 363.187L663.591 352.089L661.779 343.927L654.664 335.042L641.062 338.115L628.326 321.928L623.891 301.945L628.567 281.825Z" stroke="var(--stroke-0, #F1E84A)" stroke-width="36.0527" mask="url(#path-1-outside-1_0_4)"/>
</g>
</g>
<defs>
<filter id="filter0_d_0_4" x="0" y="5.13334" width="696.15" height="526.951" filterUnits="userSpaceOnUse" color-interpolation-filters="sRGB">
<feFlood flood-opacity="0" result="BackgroundImageFix"/>
<feColorMatrix in="SourceAlpha" type="matrix" values="0 0 0 0 0 0 0 0 0 0 0 0 0 0 0 0 0 0 127 0" result="hardAlpha"/>
<feOffset dy="5.94801"/>
<feGaussianBlur stdDeviation="2.97401"/>
<feComposite in2="hardAlpha" operator="out"/>
<feColorMatrix type="matrix" values="0 0 0 0 0 0 0 0 0 0 0 0 0 0 0 0 0 0 0.5 0"/>
<feBlend mode="normal" in2="BackgroundImageFix" result="effect1_dropShadow_0_4"/>
<feBlend mode="normal" in="SourceGraphic" in2="effect1_dropShadow_0_4" result="shape"/>
</filter>
</defs>
</svg>
